<svg width="130" height="50" viewBox="0 0 130 50" fill="none" xmlns="http://www.w3.org/2000/svg">
<path d="M28.835 34.6709L35.8562 15.198H40.4364L47.4576 34.6709H43.3985L41.9174 30.3923H34.3751L32.8941 34.6709H28.835ZM35.4996 27.0463H40.7929L38.1326 19.3394L35.4996 27.0463Z" fill="#09090B"/>
<path d="M57.987 25.6475C57.7402 23.8648 56.5609 22.9049 55.0798 22.9049C52.968 22.9049 51.7612 24.5505 51.7612 27.4028C51.7612 30.2552 52.968 31.9008 55.0798 31.9008C56.6431 31.9008 57.8225 30.9409 58.0693 29.021L62.1559 29.1856C61.7445 32.7785 58.8647 35 55.0798 35C50.6093 35 47.7021 32.0105 47.7021 27.4028C47.7021 22.7952 50.6093 19.8057 55.0798 19.8057C58.755 19.8057 61.6622 21.945 62.0462 25.4281L57.987 25.6475Z" fill="#09090B"/>
<path d="M63.5516 20.1348H67.0896L67.1994 22.4386C67.9399 20.7656 69.3661 19.8057 71.2585 19.8057C73.3155 19.8057 74.7691 20.9027 75.3999 22.7952C76.1404 20.8205 77.6489 19.8057 79.6784 19.8057C82.6131 19.8057 84.5055 21.7255 84.5055 25.3184V34.6709H80.5561V26.6075C80.5561 24.1939 79.843 22.9597 78.4168 22.9597C76.6889 22.9597 75.7839 24.2214 75.7839 26.6075V34.6709H72.2733V26.6075C72.2733 24.1939 71.5602 22.9597 70.134 22.9597C68.4061 22.9597 67.501 24.2488 67.501 26.6075V34.6709H63.5516V20.1348Z" fill="#09090B"/>
<path d="M85.952 27.4028C85.952 22.7952 88.8593 19.8057 93.3024 19.8057C97.2518 19.8057 100.324 22.4935 100.324 27.6497L100.351 28.4451H90.066C90.2032 30.6666 91.3825 32.0105 93.3024 32.0105C94.5366 32.0105 95.6611 31.2974 96.1547 30.1455L100.132 30.4472C99.2539 33.2447 96.5936 35 93.3024 35C88.8593 35 85.952 32.0105 85.952 27.4028ZM90.0935 25.9767H96.3193C96.0725 23.7003 94.7834 22.7952 93.3024 22.7952C91.5196 22.7952 90.3403 24.0019 90.0935 25.9767Z" fill="#09090B"/>
<g clip-path="url(#clip0_7099_26)">
<path fill-rule="evenodd" clip-rule="evenodd" d="M19.802 15V20.9406V34.802H13.8614V27.8746C13.8596 31.7008 10.7573 34.802 6.93069 34.802C3.10298 34.802 0 31.699 0 27.8713C0 24.0436 3.10298 20.9406 6.93069 20.9406C10.7573 20.9406 13.8596 24.0418 13.8614 27.868V20.9406H6.93069H0V15L13.8614 15L19.802 15Z" fill="#09090B"/>
</g>
<defs>
<clipPath id="clip0_7099_26">
<rect width="19.802" height="19.802" fill="white" transform="translate(0 15)"/>
</clipPath>
</defs>
</svg>
