<svg width="11" height="14" viewBox="0 0 11 14" fill="none" xmlns="http://www.w3.org/2000/svg">
<g clip-path="url(#clip0_7410_872)">
<rect width="21.0578" height="1.1201" transform="matrix(0.707108 -0.707105 0.707108 0.707105 3.80957 17.0836)" fill="#E47320" fill-opacity="0.6"/>
<rect opacity="0.5" width="21.0578" height="1.1201" transform="matrix(0.707108 -0.707105 0.707108 0.707105 3.80957 15.516)" fill="#E47320"/>
<rect opacity="0.4" width="21.0578" height="1.1201" transform="matrix(0.707108 -0.707105 0.707108 0.707105 2.24023 15.516)" fill="#E47320"/>
<rect opacity="0.35" width="21.0578" height="1.1201" transform="matrix(0.707108 -0.707105 0.707108 0.707105 0.672852 15.516)" fill="#E47320"/>
<rect opacity="0.3" width="21.0578" height="1.1201" transform="matrix(0.707108 -0.707105 0.707108 0.707105 0.224609 14.3955)" fill="#E47320"/>
<rect opacity="0.25" width="21.0578" height="1.1201" transform="matrix(0.707108 -0.707105 0.707108 0.707105 0 13.0515)" fill="#E47320"/>
<rect opacity="0.2" width="21.0578" height="1.1201" transform="matrix(0.707108 -0.707105 0.707108 0.707105 -0.671875 12.1555)" fill="#E47320"/>
<rect opacity="0.15" width="21.0578" height="1.1201" transform="matrix(0.707108 -0.707105 0.707108 0.707105 -2.23926 12.1555)" fill="#E47320"/>
<rect opacity="0.1" width="21.0578" height="1.1201" transform="matrix(0.707108 -0.707105 0.707108 0.707105 -3.80859 12.1555)" fill="#E47320"/>
</g>
<rect x="0.353865" y="0.353865" width="10.0409" height="13.1815" rx="1.85779" stroke="url(#paint0_linear_7410_872)" stroke-width="0.707729"/>
<defs>
<linearGradient id="paint0_linear_7410_872" x1="5.37432" y1="0" x2="5.37432" y2="13.8892" gradientUnits="userSpaceOnUse">
<stop stop-color="#FF9B51"/>
<stop offset="1" stop-color="#FF6C02"/>
</linearGradient>
<clipPath id="clip0_7410_872">
<rect width="10.7486" height="13.8892" rx="2.21165" fill="white"/>
</clipPath>
</defs>
</svg>
